<mxfile host="app.diagrams.net" modified="2023-06-12T11:31:18.584Z" agent="Mozilla/5.0 (Macintosh; Intel Mac OS X 10_15_7) AppleWebKit/605.1.15 (KHTML, like Gecko) Version/16.5 Safari/605.1.15" etag="KeekJEcaBMkum94oaKmQ" version="21.3.8" type="github">
  <diagram name="Seite-1" id="kPt4DwSDLzO4RaTnzeHO">
    <mxGraphModel dx="889" dy="553" grid="1" gridSize="10" guides="1" tooltips="1" connect="1" arrows="1" fold="1" page="1" pageScale="1" pageWidth="827" pageHeight="1169" math="0" shadow="0">
      <root>
        <mxCell id="0" />
        <mxCell id="1" parent="0" />
        <mxCell id="Y0GOm2_EZQEgUlRysN5h-154" value="" style="rounded=0;whiteSpace=wrap;html=1;fillColor=#f9f7ed;strokeColor=#36393d;" vertex="1" parent="1">
          <mxGeometry x="11.25" y="840" width="1638.75" height="447.5" as="geometry" />
        </mxCell>
        <mxCell id="Y0GOm2_EZQEgUlRysN5h-61" value="" style="rounded=0;whiteSpace=wrap;html=1;fillColor=#ffff88;strokeColor=#36393d;" vertex="1" parent="1">
          <mxGeometry x="207.5" y="560" width="760" height="235" as="geometry" />
        </mxCell>
        <mxCell id="Y0GOm2_EZQEgUlRysN5h-28" value="" style="rounded=0;whiteSpace=wrap;html=1;fillColor=#fad7ac;strokeColor=#b46504;" vertex="1" parent="1">
          <mxGeometry x="380" y="360" width="420" height="160" as="geometry" />
        </mxCell>
        <mxCell id="Y0GOm2_EZQEgUlRysN5h-1" value="" style="ellipse;whiteSpace=wrap;html=1;fillColor=#ffe6cc;strokeColor=#d79b00;" vertex="1" parent="1">
          <mxGeometry x="40" y="120" width="120" height="80" as="geometry" />
        </mxCell>
        <mxCell id="Y0GOm2_EZQEgUlRysN5h-2" value="&lt;font color=&quot;#000000&quot;&gt;Legionär&lt;br&gt;(Soldat)&lt;/font&gt;" style="text;strokeColor=none;align=center;fillColor=none;html=1;verticalAlign=middle;whiteSpace=wrap;rounded=0;fontStyle=1" vertex="1" parent="1">
          <mxGeometry x="70" y="145" width="60" height="30" as="geometry" />
        </mxCell>
        <mxCell id="Y0GOm2_EZQEgUlRysN5h-3" value="" style="ellipse;whiteSpace=wrap;html=1;fillColor=#d80073;fontColor=#ffffff;strokeColor=#A50040;" vertex="1" parent="1">
          <mxGeometry x="245" y="235" width="120" height="80" as="geometry" />
        </mxCell>
        <mxCell id="Y0GOm2_EZQEgUlRysN5h-4" value="Legion" style="text;strokeColor=none;align=center;fillColor=none;html=1;verticalAlign=middle;whiteSpace=wrap;rounded=0;fontColor=#000000;fontStyle=1" vertex="1" parent="1">
          <mxGeometry x="275" y="260" width="60" height="30" as="geometry" />
        </mxCell>
        <mxCell id="Y0GOm2_EZQEgUlRysN5h-6" value="" style="rounded=0;whiteSpace=wrap;html=1;fillColor=#a20025;fontColor=#ffffff;strokeColor=#6F0000;" vertex="1" parent="1">
          <mxGeometry x="410" y="410" width="165" height="80" as="geometry" />
        </mxCell>
        <mxCell id="Y0GOm2_EZQEgUlRysN5h-7" value="Zenturie" style="text;strokeColor=none;align=center;fillColor=none;html=1;verticalAlign=middle;whiteSpace=wrap;rounded=0;fontColor=#000000;" vertex="1" parent="1">
          <mxGeometry x="465" y="410" width="60" height="30" as="geometry" />
        </mxCell>
        <mxCell id="Y0GOm2_EZQEgUlRysN5h-8" value="60 -100" style="text;html=1;strokeColor=none;fillColor=none;align=center;verticalAlign=middle;whiteSpace=wrap;rounded=0;" vertex="1" parent="1">
          <mxGeometry x="342.5" y="320" width="60" height="30" as="geometry" />
        </mxCell>
        <mxCell id="Y0GOm2_EZQEgUlRysN5h-9" value="" style="ellipse;whiteSpace=wrap;html=1;fillColor=#d5e8d4;strokeColor=#82b366;gradientColor=#97d077;" vertex="1" parent="1">
          <mxGeometry x="40" y="360" width="120" height="80" as="geometry" />
        </mxCell>
        <mxCell id="Y0GOm2_EZQEgUlRysN5h-10" value="" style="ellipse;whiteSpace=wrap;html=1;fillColor=#d5e8d4;gradientColor=#97d077;strokeColor=#82b366;" vertex="1" parent="1">
          <mxGeometry x="40" y="480" width="120" height="80" as="geometry" />
        </mxCell>
        <mxCell id="Y0GOm2_EZQEgUlRysN5h-11" value="" style="ellipse;whiteSpace=wrap;html=1;fillColor=#d5e8d4;gradientColor=#97d077;strokeColor=#82b366;" vertex="1" parent="1">
          <mxGeometry x="40" y="600" width="120" height="80" as="geometry" />
        </mxCell>
        <mxCell id="Y0GOm2_EZQEgUlRysN5h-12" value="Rang" style="text;strokeColor=none;align=center;fillColor=none;html=1;verticalAlign=middle;whiteSpace=wrap;rounded=0;glass=0;fontSize=14;fontColor=#000000;" vertex="1" parent="1">
          <mxGeometry x="70" y="385" width="60" height="30" as="geometry" />
        </mxCell>
        <mxCell id="Y0GOm2_EZQEgUlRysN5h-13" value="&lt;i&gt;Rüstung&lt;/i&gt;" style="text;strokeColor=none;align=center;fillColor=none;html=1;verticalAlign=middle;whiteSpace=wrap;rounded=0;fontSize=14;fontColor=#000000;" vertex="1" parent="1">
          <mxGeometry x="70" y="505" width="60" height="30" as="geometry" />
        </mxCell>
        <mxCell id="Y0GOm2_EZQEgUlRysN5h-14" value="Waffen" style="text;strokeColor=none;align=center;fillColor=none;html=1;verticalAlign=middle;whiteSpace=wrap;rounded=0;fontSize=14;fontColor=#000000;fontStyle=2" vertex="1" parent="1">
          <mxGeometry x="70" y="630" width="60" height="30" as="geometry" />
        </mxCell>
        <mxCell id="Y0GOm2_EZQEgUlRysN5h-17" value="" style="triangle;whiteSpace=wrap;html=1;rotation=-90;fillColor=#ffcd28;gradientColor=#ffa500;strokeColor=#d79b00;" vertex="1" parent="1">
          <mxGeometry x="60" y="225" width="80" height="110" as="geometry" />
        </mxCell>
        <mxCell id="Y0GOm2_EZQEgUlRysN5h-19" value="Aufgabe" style="text;strokeColor=none;align=center;fillColor=none;html=1;verticalAlign=middle;whiteSpace=wrap;rounded=0;fontColor=#000000;fontStyle=4" vertex="1" parent="1">
          <mxGeometry x="70" y="280" width="60" height="30" as="geometry" />
        </mxCell>
        <mxCell id="Y0GOm2_EZQEgUlRysN5h-20" value="" style="rounded=1;whiteSpace=wrap;html=1;fillColor=#dae8fc;gradientColor=#7ea6e0;strokeColor=#6c8ebf;" vertex="1" parent="1">
          <mxGeometry x="365" y="80" width="120" height="60" as="geometry" />
        </mxCell>
        <mxCell id="Y0GOm2_EZQEgUlRysN5h-21" value="Offizier 1" style="text;strokeColor=none;align=center;fillColor=none;html=1;verticalAlign=middle;whiteSpace=wrap;rounded=0;fontColor=#000000;" vertex="1" parent="1">
          <mxGeometry x="395" y="95" width="60" height="30" as="geometry" />
        </mxCell>
        <mxCell id="Y0GOm2_EZQEgUlRysN5h-22" value="" style="triangle;whiteSpace=wrap;html=1;rotation=90;fillColor=#ffcd28;gradientColor=#ffa500;strokeColor=#d79b00;" vertex="1" parent="1">
          <mxGeometry x="690" y="235" width="90" height="100" as="geometry" />
        </mxCell>
        <mxCell id="Y0GOm2_EZQEgUlRysN5h-23" value="Befehl" style="text;strokeColor=none;align=center;fillColor=none;html=1;verticalAlign=middle;whiteSpace=wrap;rounded=0;fontColor=#000000;" vertex="1" parent="1">
          <mxGeometry x="705" y="250" width="60" height="30" as="geometry" />
        </mxCell>
        <mxCell id="Y0GOm2_EZQEgUlRysN5h-25" value="" style="rounded=0;whiteSpace=wrap;html=1;fillColor=#a20025;fontColor=#ffffff;strokeColor=#6F0000;" vertex="1" parent="1">
          <mxGeometry x="615" y="410" width="165" height="80" as="geometry" />
        </mxCell>
        <mxCell id="Y0GOm2_EZQEgUlRysN5h-26" value="Zenturie" style="text;strokeColor=none;align=center;fillColor=none;html=1;verticalAlign=middle;whiteSpace=wrap;rounded=0;fontColor=#000000;" vertex="1" parent="1">
          <mxGeometry x="672.5" y="410" width="60" height="30" as="geometry" />
        </mxCell>
        <mxCell id="Y0GOm2_EZQEgUlRysN5h-29" value="&lt;font style=&quot;font-size: 23px;&quot; color=&quot;#000000&quot;&gt;Manipel&lt;/font&gt;" style="text;strokeColor=none;align=center;fillColor=none;html=1;verticalAlign=middle;whiteSpace=wrap;rounded=0;" vertex="1" parent="1">
          <mxGeometry x="460" y="375" width="260" height="30" as="geometry" />
        </mxCell>
        <mxCell id="Y0GOm2_EZQEgUlRysN5h-30" value="" style="rounded=1;whiteSpace=wrap;html=1;fillColor=#dae8fc;gradientColor=#7ea6e0;strokeColor=#6c8ebf;" vertex="1" parent="1">
          <mxGeometry x="520" y="80" width="120" height="60" as="geometry" />
        </mxCell>
        <mxCell id="Y0GOm2_EZQEgUlRysN5h-31" value="" style="rounded=1;whiteSpace=wrap;html=1;fillColor=#dae8fc;gradientColor=#7ea6e0;strokeColor=#6c8ebf;" vertex="1" parent="1">
          <mxGeometry x="680" y="80" width="120" height="60" as="geometry" />
        </mxCell>
        <mxCell id="Y0GOm2_EZQEgUlRysN5h-33" value="Offizier 2" style="text;strokeColor=none;align=center;fillColor=none;html=1;verticalAlign=middle;whiteSpace=wrap;rounded=0;fontColor=#000000;" vertex="1" parent="1">
          <mxGeometry x="550" y="95" width="60" height="30" as="geometry" />
        </mxCell>
        <mxCell id="Y0GOm2_EZQEgUlRysN5h-34" value="Offizier 3" style="text;strokeColor=none;align=center;fillColor=none;html=1;verticalAlign=middle;whiteSpace=wrap;rounded=0;fontColor=#000000;" vertex="1" parent="1">
          <mxGeometry x="710" y="95" width="60" height="30" as="geometry" />
        </mxCell>
        <mxCell id="Y0GOm2_EZQEgUlRysN5h-35" value="" style="ellipse;whiteSpace=wrap;html=1;fillColor=#d5e8d4;gradientColor=#97d077;strokeColor=#82b366;" vertex="1" parent="1">
          <mxGeometry x="385" y="160" width="80" height="50" as="geometry" />
        </mxCell>
        <mxCell id="Y0GOm2_EZQEgUlRysN5h-36" value="" style="ellipse;whiteSpace=wrap;html=1;fillColor=#d5e8d4;gradientColor=#97d077;strokeColor=#82b366;" vertex="1" parent="1">
          <mxGeometry x="540" y="160" width="80" height="50" as="geometry" />
        </mxCell>
        <mxCell id="Y0GOm2_EZQEgUlRysN5h-37" value="" style="ellipse;whiteSpace=wrap;html=1;fillColor=#d5e8d4;gradientColor=#97d077;strokeColor=#82b366;" vertex="1" parent="1">
          <mxGeometry x="700" y="160" width="80" height="50" as="geometry" />
        </mxCell>
        <mxCell id="Y0GOm2_EZQEgUlRysN5h-38" value="Rang 1" style="text;strokeColor=none;align=center;fillColor=none;html=1;verticalAlign=middle;whiteSpace=wrap;rounded=0;fontColor=#000000;" vertex="1" parent="1">
          <mxGeometry x="395" y="170" width="60" height="30" as="geometry" />
        </mxCell>
        <mxCell id="Y0GOm2_EZQEgUlRysN5h-39" value="Rang 2" style="text;strokeColor=none;align=center;fillColor=none;html=1;verticalAlign=middle;whiteSpace=wrap;rounded=0;fontColor=#000000;" vertex="1" parent="1">
          <mxGeometry x="550" y="170" width="60" height="30" as="geometry" />
        </mxCell>
        <mxCell id="Y0GOm2_EZQEgUlRysN5h-40" value="Rang 3" style="text;strokeColor=none;align=center;fillColor=none;html=1;verticalAlign=middle;whiteSpace=wrap;rounded=0;fontColor=#000000;" vertex="1" parent="1">
          <mxGeometry x="710" y="170" width="60" height="30" as="geometry" />
        </mxCell>
        <mxCell id="Y0GOm2_EZQEgUlRysN5h-43" value="" style="rounded=0;whiteSpace=wrap;html=1;fillColor=#fad7ac;strokeColor=#b46504;" vertex="1" parent="1">
          <mxGeometry x="222.5" y="625" width="220" height="100" as="geometry" />
        </mxCell>
        <mxCell id="Y0GOm2_EZQEgUlRysN5h-44" value="" style="rounded=0;whiteSpace=wrap;html=1;fillColor=#fad7ac;strokeColor=#b46504;" vertex="1" parent="1">
          <mxGeometry x="487.5" y="625" width="220" height="100" as="geometry" />
        </mxCell>
        <mxCell id="Y0GOm2_EZQEgUlRysN5h-45" value="" style="rounded=0;whiteSpace=wrap;html=1;fillColor=#fad7ac;strokeColor=#b46504;" vertex="1" parent="1">
          <mxGeometry x="737.5" y="625" width="220" height="100" as="geometry" />
        </mxCell>
        <mxCell id="Y0GOm2_EZQEgUlRysN5h-46" value="" style="rounded=0;whiteSpace=wrap;html=1;fillColor=#a20025;fontColor=#ffffff;strokeColor=#6F0000;" vertex="1" parent="1">
          <mxGeometry x="247.5" y="655" width="75" height="40" as="geometry" />
        </mxCell>
        <mxCell id="Y0GOm2_EZQEgUlRysN5h-47" value="" style="rounded=0;whiteSpace=wrap;html=1;fillColor=#a20025;fontColor=#ffffff;strokeColor=#6F0000;" vertex="1" parent="1">
          <mxGeometry x="347.5" y="655" width="75" height="40" as="geometry" />
        </mxCell>
        <mxCell id="Y0GOm2_EZQEgUlRysN5h-48" value="" style="rounded=0;whiteSpace=wrap;html=1;fillColor=#a20025;fontColor=#ffffff;strokeColor=#6F0000;" vertex="1" parent="1">
          <mxGeometry x="502.5" y="655" width="75" height="40" as="geometry" />
        </mxCell>
        <mxCell id="Y0GOm2_EZQEgUlRysN5h-49" value="" style="rounded=0;whiteSpace=wrap;html=1;fillColor=#a20025;fontColor=#ffffff;strokeColor=#6F0000;" vertex="1" parent="1">
          <mxGeometry x="617.5" y="655" width="75" height="40" as="geometry" />
        </mxCell>
        <mxCell id="Y0GOm2_EZQEgUlRysN5h-50" value="" style="rounded=0;whiteSpace=wrap;html=1;fillColor=#a20025;fontColor=#ffffff;strokeColor=#6F0000;" vertex="1" parent="1">
          <mxGeometry x="767.5" y="655" width="75" height="40" as="geometry" />
        </mxCell>
        <mxCell id="Y0GOm2_EZQEgUlRysN5h-51" value="" style="rounded=0;whiteSpace=wrap;html=1;fillColor=#a20025;fontColor=#ffffff;strokeColor=#6F0000;" vertex="1" parent="1">
          <mxGeometry x="867.5" y="655" width="75" height="40" as="geometry" />
        </mxCell>
        <mxCell id="Y0GOm2_EZQEgUlRysN5h-52" value="Zenturie" style="text;strokeColor=none;align=center;fillColor=none;html=1;verticalAlign=middle;whiteSpace=wrap;rounded=0;fontColor=#000000;" vertex="1" parent="1">
          <mxGeometry x="255" y="660" width="60" height="30" as="geometry" />
        </mxCell>
        <mxCell id="Y0GOm2_EZQEgUlRysN5h-53" value="Zenturie" style="text;strokeColor=none;align=center;fillColor=none;html=1;verticalAlign=middle;whiteSpace=wrap;rounded=0;fontColor=#000000;" vertex="1" parent="1">
          <mxGeometry x="355" y="660" width="60" height="30" as="geometry" />
        </mxCell>
        <mxCell id="Y0GOm2_EZQEgUlRysN5h-54" value="Zenturie" style="text;strokeColor=none;align=center;fillColor=none;html=1;verticalAlign=middle;whiteSpace=wrap;rounded=0;fontColor=#000000;" vertex="1" parent="1">
          <mxGeometry x="510" y="660" width="60" height="30" as="geometry" />
        </mxCell>
        <mxCell id="Y0GOm2_EZQEgUlRysN5h-55" value="Zenturie" style="text;strokeColor=none;align=center;fillColor=none;html=1;verticalAlign=middle;whiteSpace=wrap;rounded=0;fontColor=#000000;" vertex="1" parent="1">
          <mxGeometry x="625" y="660" width="60" height="30" as="geometry" />
        </mxCell>
        <mxCell id="Y0GOm2_EZQEgUlRysN5h-56" value="Zenturie" style="text;strokeColor=none;align=center;fillColor=none;html=1;verticalAlign=middle;whiteSpace=wrap;rounded=0;fontColor=#000000;" vertex="1" parent="1">
          <mxGeometry x="775" y="660" width="60" height="30" as="geometry" />
        </mxCell>
        <mxCell id="Y0GOm2_EZQEgUlRysN5h-57" value="Zenturie" style="text;strokeColor=none;align=center;fillColor=none;html=1;verticalAlign=middle;whiteSpace=wrap;rounded=0;fontColor=#000000;" vertex="1" parent="1">
          <mxGeometry x="875" y="660" width="60" height="30" as="geometry" />
        </mxCell>
        <mxCell id="Y0GOm2_EZQEgUlRysN5h-58" value="&lt;font style=&quot;font-size: 23px;&quot; color=&quot;#000000&quot;&gt;Manipel&lt;/font&gt;" style="text;strokeColor=none;align=center;fillColor=none;html=1;verticalAlign=middle;whiteSpace=wrap;rounded=0;" vertex="1" parent="1">
          <mxGeometry x="202.5" y="625" width="260" height="30" as="geometry" />
        </mxCell>
        <mxCell id="Y0GOm2_EZQEgUlRysN5h-59" value="&lt;font style=&quot;font-size: 23px;&quot; color=&quot;#000000&quot;&gt;Manipel&lt;/font&gt;" style="text;strokeColor=none;align=center;fillColor=none;html=1;verticalAlign=middle;whiteSpace=wrap;rounded=0;" vertex="1" parent="1">
          <mxGeometry x="472.5" y="625" width="260" height="30" as="geometry" />
        </mxCell>
        <mxCell id="Y0GOm2_EZQEgUlRysN5h-60" value="&lt;font style=&quot;font-size: 23px;&quot; color=&quot;#000000&quot;&gt;Manipel&lt;/font&gt;" style="text;strokeColor=none;align=center;fillColor=none;html=1;verticalAlign=middle;whiteSpace=wrap;rounded=0;" vertex="1" parent="1">
          <mxGeometry x="717.5" y="625" width="260" height="30" as="geometry" />
        </mxCell>
        <mxCell id="Y0GOm2_EZQEgUlRysN5h-63" value="&lt;font color=&quot;#000000&quot;&gt;&lt;span style=&quot;caret-color: rgb(0, 0, 0); font-size: 23px;&quot;&gt;Kohorte&lt;/span&gt;&lt;/font&gt;" style="text;strokeColor=none;align=center;fillColor=none;html=1;verticalAlign=middle;whiteSpace=wrap;rounded=0;" vertex="1" parent="1">
          <mxGeometry x="477.5" y="580" width="260" height="30" as="geometry" />
        </mxCell>
        <mxCell id="Y0GOm2_EZQEgUlRysN5h-64" value="" style="ellipse;whiteSpace=wrap;html=1;fillColor=#d80073;fontColor=#ffffff;strokeColor=#A50040;" vertex="1" parent="1">
          <mxGeometry x="460" y="440" width="70" height="40" as="geometry" />
        </mxCell>
        <mxCell id="Y0GOm2_EZQEgUlRysN5h-65" value="Legion" style="text;strokeColor=none;align=center;fillColor=none;html=1;verticalAlign=middle;whiteSpace=wrap;rounded=0;fontColor=#000000;fontStyle=1" vertex="1" parent="1">
          <mxGeometry x="465" y="445" width="60" height="30" as="geometry" />
        </mxCell>
        <mxCell id="Y0GOm2_EZQEgUlRysN5h-68" value="" style="ellipse;whiteSpace=wrap;html=1;fillColor=#d80073;fontColor=#ffffff;strokeColor=#A50040;" vertex="1" parent="1">
          <mxGeometry x="667.5" y="445" width="70" height="40" as="geometry" />
        </mxCell>
        <mxCell id="Y0GOm2_EZQEgUlRysN5h-69" value="Legion" style="text;strokeColor=none;align=center;fillColor=none;html=1;verticalAlign=middle;whiteSpace=wrap;rounded=0;fontColor=#000000;fontStyle=1" vertex="1" parent="1">
          <mxGeometry x="672.5" y="450" width="60" height="30" as="geometry" />
        </mxCell>
        <mxCell id="Y0GOm2_EZQEgUlRysN5h-70" value="" style="rounded=0;whiteSpace=wrap;html=1;fillColor=#ffff88;strokeColor=#36393d;" vertex="1" parent="1">
          <mxGeometry x="42.5" y="920" width="280" height="120" as="geometry" />
        </mxCell>
        <mxCell id="Y0GOm2_EZQEgUlRysN5h-71" value="" style="rounded=0;whiteSpace=wrap;html=1;fillColor=#ffff88;strokeColor=#36393d;" vertex="1" parent="1">
          <mxGeometry x="42.5" y="1120" width="280" height="120" as="geometry" />
        </mxCell>
        <mxCell id="Y0GOm2_EZQEgUlRysN5h-72" value="" style="rounded=0;whiteSpace=wrap;html=1;fillColor=#ffff88;strokeColor=#36393d;" vertex="1" parent="1">
          <mxGeometry x="365" y="920" width="280" height="120" as="geometry" />
        </mxCell>
        <mxCell id="Y0GOm2_EZQEgUlRysN5h-73" value="" style="rounded=0;whiteSpace=wrap;html=1;fillColor=#ffff88;strokeColor=#36393d;" vertex="1" parent="1">
          <mxGeometry x="685" y="920" width="280" height="120" as="geometry" />
        </mxCell>
        <mxCell id="Y0GOm2_EZQEgUlRysN5h-74" value="" style="rounded=0;whiteSpace=wrap;html=1;fillColor=#ffff88;strokeColor=#36393d;" vertex="1" parent="1">
          <mxGeometry x="360" y="1120" width="280" height="120" as="geometry" />
        </mxCell>
        <mxCell id="Y0GOm2_EZQEgUlRysN5h-75" value="" style="rounded=0;whiteSpace=wrap;html=1;fillColor=#ffff88;strokeColor=#36393d;" vertex="1" parent="1">
          <mxGeometry x="680" y="1120" width="280" height="120" as="geometry" />
        </mxCell>
        <mxCell id="Y0GOm2_EZQEgUlRysN5h-76" value="" style="rounded=0;whiteSpace=wrap;html=1;fillColor=#ffff88;strokeColor=#36393d;" vertex="1" parent="1">
          <mxGeometry x="1000" y="920" width="280" height="120" as="geometry" />
        </mxCell>
        <mxCell id="Y0GOm2_EZQEgUlRysN5h-77" value="" style="rounded=0;whiteSpace=wrap;html=1;fillColor=#ffff88;strokeColor=#36393d;" vertex="1" parent="1">
          <mxGeometry x="1000" y="1120" width="280" height="120" as="geometry" />
        </mxCell>
        <mxCell id="Y0GOm2_EZQEgUlRysN5h-78" value="" style="rounded=0;whiteSpace=wrap;html=1;fillColor=#ffff88;strokeColor=#36393d;" vertex="1" parent="1">
          <mxGeometry x="1320" y="920" width="280" height="120" as="geometry" />
        </mxCell>
        <mxCell id="Y0GOm2_EZQEgUlRysN5h-79" value="" style="rounded=0;whiteSpace=wrap;html=1;fillColor=#ffff88;strokeColor=#36393d;" vertex="1" parent="1">
          <mxGeometry x="1320" y="1120" width="280" height="120" as="geometry" />
        </mxCell>
        <mxCell id="Y0GOm2_EZQEgUlRysN5h-80" value="" style="rounded=0;whiteSpace=wrap;html=1;fillColor=#fad7ac;strokeColor=#b46504;" vertex="1" parent="1">
          <mxGeometry x="70" y="952.5" width="220" height="55" as="geometry" />
        </mxCell>
        <mxCell id="Y0GOm2_EZQEgUlRysN5h-81" value="" style="rounded=0;whiteSpace=wrap;html=1;fillColor=#fad7ac;strokeColor=#b46504;" vertex="1" parent="1">
          <mxGeometry x="72.5" y="1152.5" width="220" height="55" as="geometry" />
        </mxCell>
        <mxCell id="Y0GOm2_EZQEgUlRysN5h-82" value="" style="rounded=0;whiteSpace=wrap;html=1;fillColor=#fad7ac;strokeColor=#b46504;" vertex="1" parent="1">
          <mxGeometry x="390" y="1152.5" width="220" height="55" as="geometry" />
        </mxCell>
        <mxCell id="Y0GOm2_EZQEgUlRysN5h-83" value="" style="rounded=0;whiteSpace=wrap;html=1;fillColor=#fad7ac;strokeColor=#b46504;" vertex="1" parent="1">
          <mxGeometry x="395" y="952.5" width="220" height="55" as="geometry" />
        </mxCell>
        <mxCell id="Y0GOm2_EZQEgUlRysN5h-84" value="" style="rounded=0;whiteSpace=wrap;html=1;fillColor=#fad7ac;strokeColor=#b46504;" vertex="1" parent="1">
          <mxGeometry x="720" y="952.5" width="220" height="55" as="geometry" />
        </mxCell>
        <mxCell id="Y0GOm2_EZQEgUlRysN5h-85" value="" style="rounded=0;whiteSpace=wrap;html=1;fillColor=#fad7ac;strokeColor=#b46504;" vertex="1" parent="1">
          <mxGeometry x="710" y="1152.5" width="220" height="55" as="geometry" />
        </mxCell>
        <mxCell id="Y0GOm2_EZQEgUlRysN5h-86" value="" style="rounded=0;whiteSpace=wrap;html=1;fillColor=#fad7ac;strokeColor=#b46504;" vertex="1" parent="1">
          <mxGeometry x="1030" y="1152.5" width="220" height="55" as="geometry" />
        </mxCell>
        <mxCell id="Y0GOm2_EZQEgUlRysN5h-87" value="" style="rounded=0;whiteSpace=wrap;html=1;fillColor=#fad7ac;strokeColor=#b46504;" vertex="1" parent="1">
          <mxGeometry x="1030" y="952.5" width="220" height="55" as="geometry" />
        </mxCell>
        <mxCell id="Y0GOm2_EZQEgUlRysN5h-88" value="" style="rounded=0;whiteSpace=wrap;html=1;fillColor=#fad7ac;strokeColor=#b46504;" vertex="1" parent="1">
          <mxGeometry x="1350" y="952.5" width="220" height="55" as="geometry" />
        </mxCell>
        <mxCell id="Y0GOm2_EZQEgUlRysN5h-89" value="" style="rounded=0;whiteSpace=wrap;html=1;fillColor=#fad7ac;strokeColor=#b46504;" vertex="1" parent="1">
          <mxGeometry x="1350" y="1152.5" width="220" height="55" as="geometry" />
        </mxCell>
        <mxCell id="Y0GOm2_EZQEgUlRysN5h-90" value="&lt;font color=&quot;#000000&quot; style=&quot;font-size: 12px;&quot;&gt;&lt;span style=&quot;caret-color: rgb(0, 0, 0); font-size: 12px;&quot;&gt;Kohorte&lt;/span&gt;&lt;/font&gt;" style="text;strokeColor=none;align=center;fillColor=none;html=1;verticalAlign=middle;whiteSpace=wrap;rounded=0;fontSize=12;fontStyle=1" vertex="1" parent="1">
          <mxGeometry x="75" y="922.5" width="217.5" height="30" as="geometry" />
        </mxCell>
        <mxCell id="Y0GOm2_EZQEgUlRysN5h-91" value="&lt;font color=&quot;#000000&quot; style=&quot;font-size: 12px;&quot;&gt;&lt;span style=&quot;caret-color: rgb(0, 0, 0); font-size: 12px;&quot;&gt;Kohorte&lt;/span&gt;&lt;/font&gt;" style="text;strokeColor=none;align=center;fillColor=none;html=1;verticalAlign=middle;whiteSpace=wrap;rounded=0;fontSize=12;fontStyle=1" vertex="1" parent="1">
          <mxGeometry x="73.75" y="1120" width="217.5" height="30" as="geometry" />
        </mxCell>
        <mxCell id="Y0GOm2_EZQEgUlRysN5h-92" value="&lt;font color=&quot;#000000&quot; style=&quot;font-size: 12px;&quot;&gt;&lt;span style=&quot;caret-color: rgb(0, 0, 0); font-size: 12px;&quot;&gt;Kohorte&lt;/span&gt;&lt;/font&gt;" style="text;strokeColor=none;align=center;fillColor=none;html=1;verticalAlign=middle;whiteSpace=wrap;rounded=0;fontSize=12;fontStyle=1" vertex="1" parent="1">
          <mxGeometry x="386.25" y="1122.5" width="217.5" height="30" as="geometry" />
        </mxCell>
        <mxCell id="Y0GOm2_EZQEgUlRysN5h-93" value="&lt;font color=&quot;#000000&quot; style=&quot;font-size: 12px;&quot;&gt;&lt;span style=&quot;caret-color: rgb(0, 0, 0); font-size: 12px;&quot;&gt;Kohorte&lt;/span&gt;&lt;/font&gt;" style="text;strokeColor=none;align=center;fillColor=none;html=1;verticalAlign=middle;whiteSpace=wrap;rounded=0;fontSize=12;fontStyle=1" vertex="1" parent="1">
          <mxGeometry x="390" y="922.5" width="217.5" height="30" as="geometry" />
        </mxCell>
        <mxCell id="Y0GOm2_EZQEgUlRysN5h-94" value="&lt;font color=&quot;#000000&quot; style=&quot;font-size: 12px;&quot;&gt;&lt;span style=&quot;caret-color: rgb(0, 0, 0); font-size: 12px;&quot;&gt;Kohorte&lt;/span&gt;&lt;/font&gt;" style="text;strokeColor=none;align=center;fillColor=none;html=1;verticalAlign=middle;whiteSpace=wrap;rounded=0;fontSize=12;fontStyle=1" vertex="1" parent="1">
          <mxGeometry x="720" y="922.5" width="217.5" height="30" as="geometry" />
        </mxCell>
        <mxCell id="Y0GOm2_EZQEgUlRysN5h-95" value="&lt;font color=&quot;#000000&quot; style=&quot;font-size: 12px;&quot;&gt;&lt;span style=&quot;caret-color: rgb(0, 0, 0); font-size: 12px;&quot;&gt;Kohorte&lt;/span&gt;&lt;/font&gt;" style="text;strokeColor=none;align=center;fillColor=none;html=1;verticalAlign=middle;whiteSpace=wrap;rounded=0;fontSize=12;fontStyle=1" vertex="1" parent="1">
          <mxGeometry x="716.25" y="1122.5" width="217.5" height="30" as="geometry" />
        </mxCell>
        <mxCell id="Y0GOm2_EZQEgUlRysN5h-96" value="&lt;font color=&quot;#000000&quot; style=&quot;font-size: 12px;&quot;&gt;&lt;span style=&quot;caret-color: rgb(0, 0, 0); font-size: 12px;&quot;&gt;Kohorte&lt;/span&gt;&lt;/font&gt;" style="text;strokeColor=none;align=center;fillColor=none;html=1;verticalAlign=middle;whiteSpace=wrap;rounded=0;fontSize=12;fontStyle=1" vertex="1" parent="1">
          <mxGeometry x="1030" y="922.5" width="217.5" height="30" as="geometry" />
        </mxCell>
        <mxCell id="Y0GOm2_EZQEgUlRysN5h-97" value="&lt;font color=&quot;#000000&quot; style=&quot;font-size: 12px;&quot;&gt;&lt;span style=&quot;caret-color: rgb(0, 0, 0); font-size: 12px;&quot;&gt;Kohorte&lt;/span&gt;&lt;/font&gt;" style="text;strokeColor=none;align=center;fillColor=none;html=1;verticalAlign=middle;whiteSpace=wrap;rounded=0;fontSize=12;fontStyle=1" vertex="1" parent="1">
          <mxGeometry x="1350" y="922.5" width="217.5" height="30" as="geometry" />
        </mxCell>
        <mxCell id="Y0GOm2_EZQEgUlRysN5h-98" value="&lt;font color=&quot;#000000&quot; style=&quot;font-size: 12px;&quot;&gt;&lt;span style=&quot;caret-color: rgb(0, 0, 0); font-size: 12px;&quot;&gt;Kohorte&lt;/span&gt;&lt;/font&gt;" style="text;strokeColor=none;align=center;fillColor=none;html=1;verticalAlign=middle;whiteSpace=wrap;rounded=0;fontSize=12;fontStyle=1" vertex="1" parent="1">
          <mxGeometry x="1030" y="1122.5" width="217.5" height="30" as="geometry" />
        </mxCell>
        <mxCell id="Y0GOm2_EZQEgUlRysN5h-99" value="&lt;font color=&quot;#000000&quot; style=&quot;font-size: 12px;&quot;&gt;&lt;span style=&quot;caret-color: rgb(0, 0, 0); font-size: 12px;&quot;&gt;Kohorte&lt;/span&gt;&lt;/font&gt;" style="text;strokeColor=none;align=center;fillColor=none;html=1;verticalAlign=middle;whiteSpace=wrap;rounded=0;fontSize=12;fontStyle=1" vertex="1" parent="1">
          <mxGeometry x="1350" y="1122.5" width="217.5" height="30" as="geometry" />
        </mxCell>
        <mxCell id="Y0GOm2_EZQEgUlRysN5h-100" value="&lt;font style=&quot;font-size: 11px;&quot; color=&quot;#000000&quot;&gt;Manipel&lt;/font&gt;" style="text;strokeColor=none;align=center;fillColor=none;html=1;verticalAlign=middle;whiteSpace=wrap;rounded=0;fontSize=11;fontStyle=1" vertex="1" parent="1">
          <mxGeometry x="63.74999999999999" y="966.25" width="226.25" height="27.5" as="geometry" />
        </mxCell>
        <mxCell id="Y0GOm2_EZQEgUlRysN5h-101" value="&lt;font style=&quot;font-size: 11px;&quot; color=&quot;#000000&quot;&gt;Manipel&lt;/font&gt;" style="text;strokeColor=none;align=center;fillColor=none;html=1;verticalAlign=middle;whiteSpace=wrap;rounded=0;fontSize=11;fontStyle=1" vertex="1" parent="1">
          <mxGeometry x="63.74999999999999" y="1166.25" width="226.25" height="27.5" as="geometry" />
        </mxCell>
        <mxCell id="Y0GOm2_EZQEgUlRysN5h-102" value="&lt;font style=&quot;font-size: 11px;&quot; color=&quot;#000000&quot;&gt;Manipel&lt;/font&gt;" style="text;strokeColor=none;align=center;fillColor=none;html=1;verticalAlign=middle;whiteSpace=wrap;rounded=0;fontSize=11;fontStyle=1" vertex="1" parent="1">
          <mxGeometry x="385" y="1166.25" width="226.25" height="27.5" as="geometry" />
        </mxCell>
        <mxCell id="Y0GOm2_EZQEgUlRysN5h-103" value="&lt;font style=&quot;font-size: 11px;&quot; color=&quot;#000000&quot;&gt;Manipel&lt;/font&gt;" style="text;strokeColor=none;align=center;fillColor=none;html=1;verticalAlign=middle;whiteSpace=wrap;rounded=0;fontSize=11;fontStyle=1" vertex="1" parent="1">
          <mxGeometry x="383.75" y="966.25" width="226.25" height="27.5" as="geometry" />
        </mxCell>
        <mxCell id="Y0GOm2_EZQEgUlRysN5h-104" value="&lt;font style=&quot;font-size: 11px;&quot; color=&quot;#000000&quot;&gt;Manipel&lt;/font&gt;" style="text;strokeColor=none;align=center;fillColor=none;html=1;verticalAlign=middle;whiteSpace=wrap;rounded=0;fontSize=11;fontStyle=1" vertex="1" parent="1">
          <mxGeometry x="705" y="1169" width="226.25" height="27.5" as="geometry" />
        </mxCell>
        <mxCell id="Y0GOm2_EZQEgUlRysN5h-105" value="&lt;font style=&quot;font-size: 11px;&quot; color=&quot;#000000&quot;&gt;Manipel&lt;/font&gt;" style="text;strokeColor=none;align=center;fillColor=none;html=1;verticalAlign=middle;whiteSpace=wrap;rounded=0;fontSize=11;fontStyle=1" vertex="1" parent="1">
          <mxGeometry x="713.75" y="966.25" width="226.25" height="27.5" as="geometry" />
        </mxCell>
        <mxCell id="Y0GOm2_EZQEgUlRysN5h-106" value="&lt;font style=&quot;font-size: 11px;&quot; color=&quot;#000000&quot;&gt;Manipel&lt;/font&gt;" style="text;strokeColor=none;align=center;fillColor=none;html=1;verticalAlign=middle;whiteSpace=wrap;rounded=0;fontSize=11;fontStyle=1" vertex="1" parent="1">
          <mxGeometry x="1025.6200000000001" y="966.25" width="226.25" height="27.5" as="geometry" />
        </mxCell>
        <mxCell id="Y0GOm2_EZQEgUlRysN5h-107" value="&lt;font style=&quot;font-size: 11px;&quot; color=&quot;#000000&quot;&gt;Manipel&lt;/font&gt;" style="text;strokeColor=none;align=center;fillColor=none;html=1;verticalAlign=middle;whiteSpace=wrap;rounded=0;fontSize=11;fontStyle=1" vertex="1" parent="1">
          <mxGeometry x="1023.7500000000001" y="1166.25" width="226.25" height="27.5" as="geometry" />
        </mxCell>
        <mxCell id="Y0GOm2_EZQEgUlRysN5h-108" value="&lt;font style=&quot;font-size: 11px;&quot; color=&quot;#000000&quot;&gt;Manipel&lt;/font&gt;" style="text;strokeColor=none;align=center;fillColor=none;html=1;verticalAlign=middle;whiteSpace=wrap;rounded=0;fontSize=11;fontStyle=1" vertex="1" parent="1">
          <mxGeometry x="1341.25" y="966.25" width="226.25" height="27.5" as="geometry" />
        </mxCell>
        <mxCell id="Y0GOm2_EZQEgUlRysN5h-109" value="&lt;font style=&quot;font-size: 11px;&quot; color=&quot;#000000&quot;&gt;Manipel&lt;/font&gt;" style="text;strokeColor=none;align=center;fillColor=none;html=1;verticalAlign=middle;whiteSpace=wrap;rounded=0;fontSize=11;fontStyle=1" vertex="1" parent="1">
          <mxGeometry x="1343.75" y="1166.25" width="226.25" height="27.5" as="geometry" />
        </mxCell>
        <mxCell id="Y0GOm2_EZQEgUlRysN5h-114" value="" style="rounded=0;whiteSpace=wrap;html=1;fillColor=#a20025;fontColor=#ffffff;strokeColor=#6F0000;" vertex="1" parent="1">
          <mxGeometry x="85" y="960" width="45" height="40" as="geometry" />
        </mxCell>
        <mxCell id="Y0GOm2_EZQEgUlRysN5h-115" value="" style="rounded=0;whiteSpace=wrap;html=1;fillColor=#a20025;fontColor=#ffffff;strokeColor=#6F0000;" vertex="1" parent="1">
          <mxGeometry x="222.5" y="960" width="45" height="40" as="geometry" />
        </mxCell>
        <mxCell id="Y0GOm2_EZQEgUlRysN5h-116" value="" style="rounded=0;whiteSpace=wrap;html=1;fillColor=#a20025;fontColor=#ffffff;strokeColor=#6F0000;" vertex="1" parent="1">
          <mxGeometry x="85" y="1160" width="45" height="40" as="geometry" />
        </mxCell>
        <mxCell id="Y0GOm2_EZQEgUlRysN5h-117" value="" style="rounded=0;whiteSpace=wrap;html=1;fillColor=#a20025;fontColor=#ffffff;strokeColor=#6F0000;" vertex="1" parent="1">
          <mxGeometry x="222.5" y="1160" width="45" height="40" as="geometry" />
        </mxCell>
        <mxCell id="Y0GOm2_EZQEgUlRysN5h-118" value="" style="rounded=0;whiteSpace=wrap;html=1;fillColor=#a20025;fontColor=#ffffff;strokeColor=#6F0000;" vertex="1" parent="1">
          <mxGeometry x="410" y="960" width="45" height="40" as="geometry" />
        </mxCell>
        <mxCell id="Y0GOm2_EZQEgUlRysN5h-119" value="" style="rounded=0;whiteSpace=wrap;html=1;fillColor=#a20025;fontColor=#ffffff;strokeColor=#6F0000;" vertex="1" parent="1">
          <mxGeometry x="550" y="960" width="45" height="40" as="geometry" />
        </mxCell>
        <mxCell id="Y0GOm2_EZQEgUlRysN5h-120" value="" style="rounded=0;whiteSpace=wrap;html=1;fillColor=#a20025;fontColor=#ffffff;strokeColor=#6F0000;" vertex="1" parent="1">
          <mxGeometry x="410" y="1160" width="45" height="40" as="geometry" />
        </mxCell>
        <mxCell id="Y0GOm2_EZQEgUlRysN5h-121" value="" style="rounded=0;whiteSpace=wrap;html=1;fillColor=#a20025;fontColor=#ffffff;strokeColor=#6F0000;" vertex="1" parent="1">
          <mxGeometry x="550" y="1160" width="45" height="40" as="geometry" />
        </mxCell>
        <mxCell id="Y0GOm2_EZQEgUlRysN5h-122" value="" style="rounded=0;whiteSpace=wrap;html=1;fillColor=#a20025;fontColor=#ffffff;strokeColor=#6F0000;" vertex="1" parent="1">
          <mxGeometry x="737.5" y="960" width="45" height="40" as="geometry" />
        </mxCell>
        <mxCell id="Y0GOm2_EZQEgUlRysN5h-123" value="" style="rounded=0;whiteSpace=wrap;html=1;fillColor=#a20025;fontColor=#ffffff;strokeColor=#6F0000;" vertex="1" parent="1">
          <mxGeometry x="875" y="960" width="45" height="40" as="geometry" />
        </mxCell>
        <mxCell id="Y0GOm2_EZQEgUlRysN5h-124" value="" style="rounded=0;whiteSpace=wrap;html=1;fillColor=#a20025;fontColor=#ffffff;strokeColor=#6F0000;" vertex="1" parent="1">
          <mxGeometry x="725" y="1160" width="45" height="40" as="geometry" />
        </mxCell>
        <mxCell id="Y0GOm2_EZQEgUlRysN5h-125" value="" style="rounded=0;whiteSpace=wrap;html=1;fillColor=#a20025;fontColor=#ffffff;strokeColor=#6F0000;" vertex="1" parent="1">
          <mxGeometry x="860" y="1160" width="45" height="40" as="geometry" />
        </mxCell>
        <mxCell id="Y0GOm2_EZQEgUlRysN5h-126" value="" style="rounded=0;whiteSpace=wrap;html=1;fillColor=#a20025;fontColor=#ffffff;strokeColor=#6F0000;" vertex="1" parent="1">
          <mxGeometry x="1050" y="960" width="45" height="40" as="geometry" />
        </mxCell>
        <mxCell id="Y0GOm2_EZQEgUlRysN5h-127" value="" style="rounded=0;whiteSpace=wrap;html=1;fillColor=#a20025;fontColor=#ffffff;strokeColor=#6F0000;" vertex="1" parent="1">
          <mxGeometry x="1180" y="960" width="45" height="40" as="geometry" />
        </mxCell>
        <mxCell id="Y0GOm2_EZQEgUlRysN5h-128" value="" style="rounded=0;whiteSpace=wrap;html=1;fillColor=#a20025;fontColor=#ffffff;strokeColor=#6F0000;" vertex="1" parent="1">
          <mxGeometry x="1050" y="1160" width="45" height="40" as="geometry" />
        </mxCell>
        <mxCell id="Y0GOm2_EZQEgUlRysN5h-129" value="" style="rounded=0;whiteSpace=wrap;html=1;fillColor=#a20025;fontColor=#ffffff;strokeColor=#6F0000;" vertex="1" parent="1">
          <mxGeometry x="1180" y="1160" width="45" height="40" as="geometry" />
        </mxCell>
        <mxCell id="Y0GOm2_EZQEgUlRysN5h-130" value="" style="rounded=0;whiteSpace=wrap;html=1;fillColor=#a20025;fontColor=#ffffff;strokeColor=#6F0000;" vertex="1" parent="1">
          <mxGeometry x="1370" y="960" width="45" height="40" as="geometry" />
        </mxCell>
        <mxCell id="Y0GOm2_EZQEgUlRysN5h-131" value="" style="rounded=0;whiteSpace=wrap;html=1;fillColor=#a20025;fontColor=#ffffff;strokeColor=#6F0000;" vertex="1" parent="1">
          <mxGeometry x="1500" y="960" width="45" height="40" as="geometry" />
        </mxCell>
        <mxCell id="Y0GOm2_EZQEgUlRysN5h-132" value="" style="rounded=0;whiteSpace=wrap;html=1;fillColor=#a20025;fontColor=#ffffff;strokeColor=#6F0000;" vertex="1" parent="1">
          <mxGeometry x="1360" y="1162.75" width="45" height="40" as="geometry" />
        </mxCell>
        <mxCell id="Y0GOm2_EZQEgUlRysN5h-133" value="" style="rounded=0;whiteSpace=wrap;html=1;fillColor=#a20025;fontColor=#ffffff;strokeColor=#6F0000;" vertex="1" parent="1">
          <mxGeometry x="1510" y="1162.75" width="45" height="40" as="geometry" />
        </mxCell>
        <mxCell id="Y0GOm2_EZQEgUlRysN5h-134" value="Zenturie" style="text;strokeColor=none;align=center;fillColor=none;html=1;verticalAlign=middle;whiteSpace=wrap;rounded=0;fontSize=10;fontColor=#000000;fontStyle=1" vertex="1" parent="1">
          <mxGeometry x="77.5" y="965" width="60" height="30" as="geometry" />
        </mxCell>
        <mxCell id="Y0GOm2_EZQEgUlRysN5h-135" value="Zenturie" style="text;strokeColor=none;align=center;fillColor=none;html=1;verticalAlign=middle;whiteSpace=wrap;rounded=0;fontSize=10;fontColor=#000000;fontStyle=1" vertex="1" parent="1">
          <mxGeometry x="215" y="965" width="60" height="30" as="geometry" />
        </mxCell>
        <mxCell id="Y0GOm2_EZQEgUlRysN5h-136" value="Zenturie" style="text;strokeColor=none;align=center;fillColor=none;html=1;verticalAlign=middle;whiteSpace=wrap;rounded=0;fontSize=10;fontColor=#000000;fontStyle=1" vertex="1" parent="1">
          <mxGeometry x="77.5" y="1165" width="60" height="30" as="geometry" />
        </mxCell>
        <mxCell id="Y0GOm2_EZQEgUlRysN5h-137" value="Zenturie" style="text;strokeColor=none;align=center;fillColor=none;html=1;verticalAlign=middle;whiteSpace=wrap;rounded=0;fontSize=10;fontColor=#000000;fontStyle=1" vertex="1" parent="1">
          <mxGeometry x="215" y="1165" width="60" height="30" as="geometry" />
        </mxCell>
        <mxCell id="Y0GOm2_EZQEgUlRysN5h-138" value="Zenturie" style="text;strokeColor=none;align=center;fillColor=none;html=1;verticalAlign=middle;whiteSpace=wrap;rounded=0;fontSize=10;fontColor=#000000;fontStyle=1" vertex="1" parent="1">
          <mxGeometry x="402.5" y="1163.75" width="60" height="30" as="geometry" />
        </mxCell>
        <mxCell id="Y0GOm2_EZQEgUlRysN5h-139" value="Zenturie" style="text;strokeColor=none;align=center;fillColor=none;html=1;verticalAlign=middle;whiteSpace=wrap;rounded=0;fontSize=10;fontColor=#000000;fontStyle=1" vertex="1" parent="1">
          <mxGeometry x="543.75" y="1163.75" width="60" height="30" as="geometry" />
        </mxCell>
        <mxCell id="Y0GOm2_EZQEgUlRysN5h-140" value="Zenturie" style="text;strokeColor=none;align=center;fillColor=none;html=1;verticalAlign=middle;whiteSpace=wrap;rounded=0;fontSize=10;fontColor=#000000;fontStyle=1" vertex="1" parent="1">
          <mxGeometry x="542.5" y="963.75" width="60" height="30" as="geometry" />
        </mxCell>
        <mxCell id="Y0GOm2_EZQEgUlRysN5h-141" value="Zenturie" style="text;strokeColor=none;align=center;fillColor=none;html=1;verticalAlign=middle;whiteSpace=wrap;rounded=0;fontSize=10;fontColor=#000000;fontStyle=1" vertex="1" parent="1">
          <mxGeometry x="402.5" y="963.75" width="60" height="30" as="geometry" />
        </mxCell>
        <mxCell id="Y0GOm2_EZQEgUlRysN5h-142" value="Zenturie" style="text;strokeColor=none;align=center;fillColor=none;html=1;verticalAlign=middle;whiteSpace=wrap;rounded=0;fontSize=10;fontColor=#000000;fontStyle=1" vertex="1" parent="1">
          <mxGeometry x="730" y="963.75" width="60" height="30" as="geometry" />
        </mxCell>
        <mxCell id="Y0GOm2_EZQEgUlRysN5h-143" value="Zenturie" style="text;strokeColor=none;align=center;fillColor=none;html=1;verticalAlign=middle;whiteSpace=wrap;rounded=0;fontSize=10;fontColor=#000000;fontStyle=1" vertex="1" parent="1">
          <mxGeometry x="867.5" y="963.75" width="60" height="30" as="geometry" />
        </mxCell>
        <mxCell id="Y0GOm2_EZQEgUlRysN5h-144" value="Zenturie" style="text;strokeColor=none;align=center;fillColor=none;html=1;verticalAlign=middle;whiteSpace=wrap;rounded=0;fontSize=10;fontColor=#000000;fontStyle=1" vertex="1" parent="1">
          <mxGeometry x="717.5" y="1165" width="60" height="30" as="geometry" />
        </mxCell>
        <mxCell id="Y0GOm2_EZQEgUlRysN5h-145" value="Zenturie" style="text;strokeColor=none;align=center;fillColor=none;html=1;verticalAlign=middle;whiteSpace=wrap;rounded=0;fontSize=10;fontColor=#000000;fontStyle=1" vertex="1" parent="1">
          <mxGeometry x="852.5" y="1163.75" width="60" height="30" as="geometry" />
        </mxCell>
        <mxCell id="Y0GOm2_EZQEgUlRysN5h-146" value="Zenturie" style="text;strokeColor=none;align=center;fillColor=none;html=1;verticalAlign=middle;whiteSpace=wrap;rounded=0;fontSize=10;fontColor=#000000;fontStyle=1" vertex="1" parent="1">
          <mxGeometry x="1042.5" y="965" width="60" height="30" as="geometry" />
        </mxCell>
        <mxCell id="Y0GOm2_EZQEgUlRysN5h-147" value="Zenturie" style="text;strokeColor=none;align=center;fillColor=none;html=1;verticalAlign=middle;whiteSpace=wrap;rounded=0;fontSize=10;fontColor=#000000;fontStyle=1" vertex="1" parent="1">
          <mxGeometry x="1172.5" y="963.75" width="60" height="30" as="geometry" />
        </mxCell>
        <mxCell id="Y0GOm2_EZQEgUlRysN5h-148" value="Zenturie" style="text;strokeColor=none;align=center;fillColor=none;html=1;verticalAlign=middle;whiteSpace=wrap;rounded=0;fontSize=10;fontColor=#000000;fontStyle=1" vertex="1" parent="1">
          <mxGeometry x="1042.5" y="1166.25" width="60" height="30" as="geometry" />
        </mxCell>
        <mxCell id="Y0GOm2_EZQEgUlRysN5h-149" value="Zenturie" style="text;strokeColor=none;align=center;fillColor=none;html=1;verticalAlign=middle;whiteSpace=wrap;rounded=0;fontSize=10;fontColor=#000000;fontStyle=1" vertex="1" parent="1">
          <mxGeometry x="1172.5" y="1165" width="60" height="30" as="geometry" />
        </mxCell>
        <mxCell id="Y0GOm2_EZQEgUlRysN5h-150" value="Zenturie" style="text;strokeColor=none;align=center;fillColor=none;html=1;verticalAlign=middle;whiteSpace=wrap;rounded=0;fontSize=10;fontColor=#000000;fontStyle=1" vertex="1" parent="1">
          <mxGeometry x="1360" y="963.75" width="60" height="30" as="geometry" />
        </mxCell>
        <mxCell id="Y0GOm2_EZQEgUlRysN5h-151" value="Zenturie" style="text;strokeColor=none;align=center;fillColor=none;html=1;verticalAlign=middle;whiteSpace=wrap;rounded=0;fontSize=10;fontColor=#000000;fontStyle=1" vertex="1" parent="1">
          <mxGeometry x="1492.5" y="965" width="60" height="30" as="geometry" />
        </mxCell>
        <mxCell id="Y0GOm2_EZQEgUlRysN5h-152" value="Zenturie" style="text;strokeColor=none;align=center;fillColor=none;html=1;verticalAlign=middle;whiteSpace=wrap;rounded=0;fontSize=10;fontColor=#000000;fontStyle=1" vertex="1" parent="1">
          <mxGeometry x="1352.5" y="1167.75" width="60" height="30" as="geometry" />
        </mxCell>
        <mxCell id="Y0GOm2_EZQEgUlRysN5h-153" value="Zenturie" style="text;strokeColor=none;align=center;fillColor=none;html=1;verticalAlign=middle;whiteSpace=wrap;rounded=0;fontSize=10;fontColor=#000000;fontStyle=1" vertex="1" parent="1">
          <mxGeometry x="1502.5" y="1167.75" width="60" height="30" as="geometry" />
        </mxCell>
        <mxCell id="Y0GOm2_EZQEgUlRysN5h-155" value="Legion" style="text;strokeColor=none;align=center;fillColor=none;html=1;verticalAlign=middle;whiteSpace=wrap;rounded=0;fontColor=#000000;fontSize=50;fontStyle=4" vertex="1" parent="1">
          <mxGeometry x="582.5" y="860" width="530" height="30" as="geometry" />
        </mxCell>
      </root>
    </mxGraphModel>
  </diagram>
</mxfile>
